/* XPM */
static char *magick[] = {
/* columns rows colors chars-per-pixel */
"32 32 23 1",
"  c black",
". c #191919",
"X c gray20",
"o c #00007f",
"O c #007f00",
"+ c #007f7f",
"@ c #7f0000",
"# c #7f007f",
"$ c #7f7f00",
"% c #4c4c4c",
"& c #666667",
"* c gray50",
"= c blue",
"- c green",
"; c red",
": c magenta",
"> c yellow",
", c gray60",
"< c #b2b2b2",
"1 c gray80",
"2 c gray90",
"3 c white",
"4 c None",
/* pixels */
"4  4 44444444444444444444444 4  ",
" 4    .     . ... ..    .      4",
"4  . .o  o .o...  o  ...o  ..   ",
"4  . .. .... .  .o..  o.   .o ..",
"4   o....OoX#XXo..o .oo o...  ..",
"4 o. ..o-+##:<:##o.....   o.... ",
"4   . ..O$#@*::%#&. ..o .oo.... ",
"4   o..oOO.#,##,:%oo.oooo.. o...",
"4   .o.oOOX##:*::%.ooo.oo  .....",
"4   .o...O.##*####oX..ooooooo ..",
"4.o  ....o.#&###oX..@. .@.o.. ..",
"4   .ooo. @.###@@@@@@@#$@@o..o. ",
"4   ooX;@@;;;@;@@;*;&;;;;@ ooo  ",
"4  o..#*;,<<,<<>*;,@;$,;$o.. .  ",
"4.....o;<,11,<<1,;;;;;*;;oo.o.. ",
"4   o.o@<<<<;<:;;;;,@;;@@.o.....",
"4 .....@<<<<;<,;;;;$@@%.oo..... ",
"4 o.oo.@<<,<,;;;*#%#oooo.oo.o.. ",
"4  .  .@;,*;;&#Xoooooo.ooo.o.o. ",
"4  ..XoX;;@@ooooXo.oo.ooo .. .. ",
"4  .*1#.@&+oo%%*<,oooo=ooo.oX.o ",
"4  X221o23323o*112*o&31<<,.,2<X ",
"4. .,1<*<111<1<<11,o<211<1.&2<. ",
"4...=<<<o,*o,&o*<<=*<o&<<<Xo<o  ",
"4...,<<,X*<o,<o&<<<,<=o<=<1o,%..",
"4  X=<,=o*=o=<o+,,=*,<,,=%o *o  ",
"4.o Xoo&o.%ooooo==ooo=oo..o.*&. ",
"4   . .o.o..........oXo.o. .oo  ",
"4 .. .o.o....o. .o.oo...o .o..  ",
"4   .. ...o   .o.   . o  o ..o. ",
"4   o..oo ........ .  o.   .o.  ",
" 4      .  ...  ....   ..       "
};
