/* XPM */
static char *ftpcube_big[]={
"32 32 10 1",
". c None",
"f c #000000",
"h c #0000ff",
"# c #00ffff",
"a c #1e90ff",
"g c #2f4f4f",
"c c #708090",
"e c #bebebe",
"d c #dcdcdc",
"b c #ffffff",
"................................",
"................................",
".....#########aaaa..............",
"....###aaa#aa####aa.............",
"...##a...aaa...##ba.............",
"...##a.........##aa...####aa....",
".aa##aa.....ccc##aa..##aaaaaaa..",
"a#####aaa.ccd..###aa##aa..aa#aa.",
"##aaa###ac######bbb##aa....aa#aa",
"#a..a#bb##########bb#a......aa#a",
"#a..ccdbbbbb.########cc.....aaaa",
"##acdd##bbbb.####eeeedcf...a##a.",
"a#agbb####b######eeddgff..a##aa.",
".#ageebb#########ddggfgf.a##aa..",
"#aageeeebbb##d##dgfggggfaaaaa...",
"#aageeeeeebb###gffggggagaaaa....",
"##ageeeeecccbbgfffggcaaaaaa.....",
"a##g#eeeeccccbfffgggaaaaaa......",
".a########cccdfffggaaaaaaa......",
".a#########ccdfffggaa##ag.......",
"..a#bb#b###cceffggga###agc......",
"...g#bb###cccefgggga##aaffgc....",
"...g##b#eeecceggggga#aahfffffgc.",
"...g##b##eeccegggggaaahffffffffg",
"...gc####eeecegggggaahfffffffffg",
"...gc####eeeeegggggfffffffffffg.",
"...gcc##eeeeeegggggfffffffffgc..",
"....fgccceeeeeggggfffffffffg....",
"......fgceeeeeggggffffffffg.....",
"........fgeeecgggfffffffgc......",
"..........fgccfffffffffg........",
"............fffffffffgc........."};
