/* XPM */
static char * wsoundserver_xpm[] = {
"48 48 506 2",
"  	c None",
". 	c #000000",
"+ 	c #ADADAD",
"@ 	c #E7E7E7",
"# 	c #FFFFFF",
"$ 	c #FEFEFE",
"% 	c #FDFDFD",
"& 	c #FCFCFC",
"* 	c #FBFBFB",
"= 	c #FAFAFA",
"- 	c #F9F9F9",
"; 	c #F8F8F8",
"> 	c #F7F7F7",
", 	c #F6F6F6",
"' 	c #F5F5F5",
") 	c #F4F4F4",
"! 	c #F3F3F3",
"~ 	c #F2F2F2",
"{ 	c #F1F1F1",
"] 	c #F0F0F0",
"^ 	c #EFEFEF",
"/ 	c #EEEEEE",
"( 	c #E8E8E8",
"_ 	c #BDBDBC",
": 	c #BABABA",
"< 	c #919191",
"[ 	c #30302C",
"} 	c #22221C",
"| 	c #1D1D17",
"1 	c #2B2B25",
"2 	c #90908F",
"3 	c #B7B7B7",
"4 	c #B9B9B9",
"5 	c #E4E4E4",
"6 	c #A1A1A1",
"7 	c #646463",
"8 	c #22221E",
"9 	c #0F0F0E",
"0 	c #121211",
"a 	c #181814",
"b 	c #242420",
"c 	c #1B1B17",
"d 	c #0A0A0A",
"e 	c #181816",
"f 	c #606060",
"g 	c #858583",
"h 	c #BCBCBB",
"i 	c #CBCBCB",
"j 	c #4B4B4B",
"k 	c #1C1C1C",
"l 	c #0B0B0A",
"m 	c #1F1F19",
"n 	c #252523",
"o 	c #1C1C16",
"p 	c #1E1E17",
"q 	c #23231C",
"r 	c #21211A",
"s 	c #202018",
"t 	c #1D1D16",
"u 	c #1A1A14",
"v 	c #0C0C0A",
"w 	c #393937",
"x 	c #C6C6C6",
"y 	c #EDEDED",
"z 	c #DBDBDB",
"A 	c #070707",
"B 	c #0D0D0C",
"C 	c #171715",
"D 	c #292928",
"E 	c #2A2A25",
"F 	c #25251E",
"G 	c #292921",
"H 	c #26261F",
"I 	c #2D2D2A",
"J 	c #2A2A22",
"K 	c #2C2C24",
"L 	c #2F2F2D",
"M 	c #2E2E26",
"N 	c #2B2B23",
"O 	c #26261E",
"P 	c #161614",
"Q 	c #090908",
"R 	c #0B0B0B",
"S 	c #D5D5D5",
"T 	c #636360",
"U 	c #191915",
"V 	c #24241E",
"W 	c #21211C",
"X 	c #262624",
"Y 	c #3E3E36",
"Z 	c #41413C",
"` 	c #4A4A42",
" .	c #3C3C36",
"..	c #34342D",
"+.	c #303029",
"@.	c #2C2C26",
"#.	c #282823",
"$.	c #303028",
"%.	c #383830",
"&.	c #43433B",
"*.	c #3F3F37",
"=.	c #262620",
"-.	c #10100F",
";.	c #141413",
">.	c #D4D4D4",
",.	c #131312",
"'.	c #1D1D18",
").	c #2C2C27",
"!.	c #595951",
"~.	c #646459",
"{.	c #5D5D55",
"].	c #515149",
"^.	c #52524A",
"/.	c #47473F",
"(.	c #414139",
"_.	c #35352E",
":.	c #24241C",
"<.	c #1E1E19",
"[.	c #4F4F42",
"}.	c #4F4F47",
"|.	c #121210",
"1.	c #1D1D19",
"2.	c #B6B6B6",
"3.	c #282826",
"4.	c #1B1B18",
"5.	c #4C4D45",
"6.	c #7A746C",
"7.	c #827D72",
"8.	c #7C7A6C",
"9.	c #717261",
"0.	c #69695A",
"a.	c #5E5E55",
"b.	c #46463E",
"c.	c #3D3D35",
"d.	c #333330",
"e.	c #0C0C0C",
"f.	c #151514",
"g.	c #3E3E37",
"h.	c #5B5B51",
"i.	c #30302E",
"j.	c #C5C5C5",
"k.	c #C1C1C0",
"l.	c #3A3A38",
"m.	c #2A2A24",
"n.	c #4E4F46",
"o.	c #7E8176",
"p.	c #878679",
"q.	c #8A8C7A",
"r.	c #848274",
"s.	c #75746B",
"t.	c #6F6F5F",
"u.	c #646458",
"v.	c #53534B",
"w.	c #2F2F2B",
"x.	c #101010",
"y.	c #080808",
"z.	c #4B4B41",
"A.	c #57574C",
"B.	c #0A0A09",
"C.	c #BABAB9",
"D.	c #898986",
"E.	c #0D0D0A",
"F.	c #202019",
"G.	c #20201B",
"H.	c #888C7F",
"I.	c #959986",
"J.	c #959985",
"K.	c #8D917D",
"L.	c #837F73",
"M.	c #747267",
"N.	c #6F6F68",
"O.	c #6A6A5B",
"P.	c #5A5A50",
"Q.	c #42423A",
"R.	c #3B3B34",
"S.	c #22221A",
"T.	c #0D0D0D",
"U.	c #090909",
"V.	c #131311",
"W.	c #5F5D54",
"X.	c #545149",
"Y.	c #0E0E0C",
"Z.	c #868683",
"`.	c #626261",
" +	c #141412",
".+	c #292926",
"++	c #757873",
"@+	c #A0A498",
"#+	c #9DA192",
"$+	c #989C89",
"%+	c #909485",
"&+	c #868577",
"*+	c #807970",
"=+	c #676759",
"-+	c #59594F",
";+	c #494941",
">+	c #3B3B33",
",+	c #0E0E0E",
"'+	c #2E2E29",
")+	c #6B6C61",
"!+	c #3A3A30",
"~+	c #0F0F0D",
"{+	c #5F5F5E",
"]+	c #E0E0E0",
"^+	c #272721",
"/+	c #54554A",
"(+	c #979A8E",
"_+	c #A7AB9C",
":+	c #A4A89C",
"<+	c #9EA293",
"[+	c #9A9E8E",
"}+	c #909484",
"|+	c #474741",
"1+	c #6A6A5C",
"2+	c #606056",
"3+	c #36362E",
"4+	c #161613",
"5+	c #5C5E52",
"6+	c #5D5E55",
"7+	c #B5B5B5",
"8+	c #10100D",
"9+	c #21211F",
"0+	c #7C7E74",
"a+	c #AEB2A0",
"b+	c #ABAFA0",
"c+	c #A8AC9E",
"d+	c #9FA397",
"e+	c #949885",
"f+	c #424236",
"g+	c #46463C",
"h+	c #505048",
"i+	c #2B2B26",
"j+	c #0F0F0F",
"k+	c #41413A",
"l+	c #767168",
"m+	c #21211B",
"n+	c #B3B3B3",
"o+	c #8F8F8F",
"p+	c #141410",
"q+	c #3D3E38",
"r+	c #9B9F96",
"s+	c #AFB3A7",
"t+	c #B0B4A8",
"u+	c #B0B4A5",
"v+	c #A0A496",
"w+	c #9FA295",
"x+	c #838076",
"y+	c #393931",
"z+	c #4E4E46",
"A+	c #40403B",
"B+	c #252522",
"C+	c #7E8170",
"D+	c #3E3E33",
"E+	c #8C8C8B",
"F+	c #ECECEC",
"G+	c #4C4D4A",
"H+	c #A6AA9C",
"I+	c #AFB3A6",
"J+	c #B0B4A2",
"K+	c #959889",
"L+	c #828474",
"M+	c #5D5E53",
"N+	c #4C4C44",
"O+	c #4B4B43",
"P+	c #2D2D25",
"Q+	c #7B7E6F",
"R+	c #4D4D45",
"S+	c #12120E",
"T+	c #282822",
"U+	c #12120F",
"V+	c #565750",
"W+	c #ABAF9F",
"X+	c #B4B8AF",
"Y+	c #B1B5AB",
"Z+	c #B3B7AE",
"`+	c #B0B4A6",
" @	c #AEB2A3",
".@	c #A1A49B",
"+@	c #595A4C",
"@@	c #484840",
"#@	c #33332B",
"$@	c #191916",
"%@	c #75786C",
"&@	c #59594C",
"*@	c #151512",
"=@	c #56574E",
"-@	c #AEB2A6",
";@	c #B3B7AD",
">@	c #B1B5AA",
",@	c #ADB1A3",
"'@	c #68695F",
")@	c #45453D",
"!@	c #42423B",
"~@	c #32322A",
"{@	c #555548",
"]@	c #161612",
"^@	c #1A1A15",
"/@	c #4F504A",
"(@	c #A6AA9E",
"_@	c #B4B8B0",
":@	c #B2B6AA",
"<@	c #B0B4A7",
"[@	c #B0B4A4",
"}@	c #77786B",
"|@	c #44443E",
"1@	c #2D2D26",
"2@	c #787B6C",
"3@	c #4B4B44",
"4@	c #10100E",
"5@	c #8F8F8E",
"6@	c #151511",
"7@	c #343534",
"8@	c #9CA097",
"9@	c #B5B9B2",
"0@	c #ADB1A2",
"a@	c #999D90",
"b@	c #474740",
"c@	c #3F3F3A",
"d@	c #7B7E6D",
"e@	c #3D3D33",
"f@	c #0F0F0C",
"g@	c #888A7D",
"h@	c #A9ADA1",
"i@	c #ADB19F",
"j@	c #A6AA9B",
"k@	c #9EA295",
"l@	c #888B79",
"m@	c #4C4C43",
"n@	c #333331",
"o@	c #303030",
"p@	c #292924",
"q@	c #444443",
"r@	c #79746D",
"s@	c #20201A",
"t@	c #B2B2B2",
"u@	c #EBEBEB",
"v@	c #605F56",
"w@	c #A5A799",
"x@	c #AAAEA1",
"y@	c #A5A99C",
"z@	c #929683",
"A@	c #8D8F7D",
"B@	c #78756A",
"C@	c #54534B",
"D@	c #42423D",
"E@	c #27271F",
"F@	c #5E6056",
"G@	c #606155",
"H@	c #141411",
"I@	c #B4B4B4",
"J@	c #181812",
"K@	c #35342F",
"L@	c #9A9C8F",
"M@	c #A4A89A",
"N@	c #B0B4A3",
"O@	c #A5A99D",
"P@	c #999D8B",
"Q@	c #919581",
"R@	c #8A8E7A",
"S@	c #848174",
"T@	c #7D7C6D",
"U@	c #67665B",
"V@	c #404038",
"W@	c #30302D",
"X@	c #32302A",
"Y@	c #7B756C",
"Z@	c #4C4B42",
"`@	c #DEDEDE",
" #	c #9C9C9B",
".#	c #1C1C18",
"+#	c #4A4A3F",
"@#	c #A3A59A",
"##	c #9FA396",
"$#	c #A7AB99",
"%#	c #9A9E8B",
"&#	c #939783",
"*#	c #888A78",
"=#	c #7C766C",
"-#	c #707060",
";#	c #6C6C5C",
">#	c #585850",
",#	c #43433E",
"'#	c #383832",
")#	c #212119",
"!#	c #171716",
"~#	c #69695E",
"{#	c #656759",
"]#	c #999998",
"^#	c #4A4A4A",
"/#	c #282824",
"(#	c #66635A",
"_#	c #9A9B8C",
":#	c #9B9F8B",
"<#	c #9A9E8D",
"[#	c #8E927E",
"}#	c #787468",
"|#	c #6C6B5F",
"1#	c #66665A",
"2#	c #54544A",
"3#	c #35352D",
"4#	c #726F62",
"5#	c #505044",
"6#	c #484848",
"7#	c #373731",
"8#	c #2B2A22",
"9#	c #5F5F52",
"0#	c #929582",
"a#	c #969A86",
"b#	c #898979",
"c#	c #817971",
"d#	c #717161",
"e#	c #747264",
"f#	c #6E6E60",
"g#	c #67675B",
"h#	c #626256",
"i#	c #4E4E44",
"j#	c #6D6D5D",
"k#	c #5A5A4E",
"l#	c #323229",
"m#	c #C2C2C2",
"n#	c #EAEAEA",
"o#	c #1A1A16",
"p#	c #49493D",
"q#	c #3E3E39",
"r#	c #4A4A3E",
"s#	c #7A7D6C",
"t#	c #878B77",
"u#	c #7B7C6B",
"v#	c #727164",
"w#	c #707061",
"x#	c #6C6C5D",
"y#	c #636358",
"z#	c #4E4E40",
"A#	c #3A3A35",
"B#	c #5C5C50",
"C#	c #4C4C3E",
"D#	c #232321",
"E#	c #3A3A34",
"F#	c #3C3C35",
"G#	c #38382F",
"H#	c #525346",
"I#	c #666857",
"J#	c #757165",
"K#	c #747268",
"L#	c #707062",
"M#	c #666658",
"N#	c #606058",
"O#	c #5C5C52",
"P#	c #606054",
"Q#	c #616154",
"R#	c #24241F",
"S#	c #151513",
"T#	c #63635F",
"U#	c #D0D0D0",
"V#	c #383831",
"W#	c #3E3E35",
"X#	c #4C4C41",
"Y#	c #525242",
"Z#	c #57574E",
"`#	c #545449",
" $	c #57574D",
".$	c #5A5A52",
"+$	c #55554C",
"@$	c #424237",
"#$	c #494949",
"$$	c #46463F",
"%$	c #49493B",
"&$	c #4D4D44",
"*$	c #38382E",
"=$	c #2F2F29",
"-$	c #E9E9E9",
";$	c #9C9C9C",
">$	c #616161",
",$	c #111110",
"'$	c #1C1C19",
")$	c #1E1E1C",
"!$	c #323228",
"~$	c #20201C",
"{$	c #E1E1E1",
"]$	c #B6B6B5",
"^$	c #23231D",
"/$	c #D9D9D9",
"($	c #B0B0B0",
"_$	c #D8D8D8",
":$	c #C1C1C1",
"<$	c #878787",
"[$	c #727272",
"}$	c #AFAFAF",
"|$	c #9B9B9B",
"1$	c #707070",
"2$	c #C4C4C4",
"3$	c #9A9A9A",
"4$	c #868686",
"5$	c #C3C3C3",
"6$	c #999999",
"7$	c #858585",
"8$	c #717171",
"9$	c #5D5D5D",
"0$	c #AEAEAE",
"a$	c #989898",
"b$	c #D7D7D7",
"c$	c #ACACAC",
"d$	c #353535",
"e$	c #BFBFBF",
"f$	c #ABABAB",
"g$	c #D3D3D3",
"                                                                                                ",
"  . . . . . . . . . . . . . . . . . . . . . . . . . . . . . . . . . . . . . . . . . . . . . . . ",
"  . + + + + + + + + + + + + + + + + + + + + + + + + + + + + + + + + + + + + + + + + + + + + @ # ",
"  . + # $ $ % % % & & * * * = = - - - ; ; > > > , , ' ' ' ) ) ! ! ! ~ ~ { { { ] ] ^ ^ ^ / / @ # ",
"  . + $ $ $ % % & & & * * = = = - - ; ; ; > > > , , ' ' ' ) ) ! ! ! ~ ~ { { { ] ] ^ ^ ^ / / @ # ",
"  . + $ $ % % % & & & * * = = = - - ; ; ; > > , , , ' ' ) ) ) ! ! ~ ~ ~ { { { ] ] ^ ^ ^ / / @ # ",
"  . + % % % % % & & * * * = = = - - ; ; ; > > , , , ' ' ) ) ) ! ! ~ ~ ~ { { ] ] ] ^ ^ / / / @ # ",
"  . + % % % % & & & * * * = = - - - ; ; ; > > , , , ' ' ) ) ) ! ! ~ ~ ~ { { ] ] ] ^ ^ / / / @ # ",
"  . + % & & & & & * * * = = = - - - ( _ : < [ } | 1 2 3 4 5 ) ! ! ~ ~ ~ { { ] ] ] ^ ^ / / / @ # ",
"  . + & & & & & * * * * = = - - - 6 7 8 9 0 a b c a 0 d e f g h ! ~ ~ ~ { { ] ] ] ^ ^ / / / @ # ",
"  . + & & & * * * * * = = = - i j k l m n o p q r s t o u 9 v w x ~ ~ { { { ] ] ^ ^ ^ / / y @ # ",
"  . + * * * * * * * = = = z h A B C D E F G H I J K L M N O P Q R 3 S { { { ] ] ^ ^ ^ / / y @ # ",
"  . + * * * * * = = = = z T U a V W X Y Z `  ...+.@.#.$.%.&.*.=.-.;.T >.{ ] ] ] ^ ^ ^ / / y @ # ",
"  . + * = = = = = = = - h ,.n N '.).!.~.{.].^./.(._.:.s <.@.[.}.1 |.1.2.{ ] ] ] ^ ^ / / / y @ # ",
"  . + = = = = = = - - i A U 3.4.5.6.7.8.9.0.a.^.b.c.d.O a e.f.g.h.i.-.e.j.] ] ^ ^ ^ / / / y @ # ",
"  . + = = = = - - - k.l.9 m.<.n.o.p.q.r.s.t.u.v.b. .w.O a x.y.P z.A.@.B.w C.] ^ ^ ^ / / y y @ # ",
"  . + - - - - - - - D.E.F.G. .H.I.J.K.L.M.N.O.P.Q.R.K S.a x.T.U.V.W.X.r Y.Z.] ^ ^ / / / y y @ # ",
"  . + - - - - - - ( `. +H .+++@+#+$+%+&+*+=+O.-+;+>+J U x.,+R e.d '+)+!+~+{+]+^ ^ / / / y y @ # ",
"  . + - ; ; ; ; ; h e ^+'./+(+_+:+<+[+}+&+|+1+2+;+3+G.4+x.T.R d e.4+5+6+o P 7+^ ^ / / y y y @ # ",
"  . + ; ; ; ; ; ; : 8+F.9+0+@+a+b+c+d+[+e+f+g+h+b.i+0 |.T.e.U.R e.j+k+l+m+e.n+^ / / / y y y @ # ",
"  . + ; ; ; ; ; > o+p+ +q+r+s+t+u+b+v+w+x+y+` ` z+A+H d e.U.T.U.T.d B+C+D+-.E+^ / / / y y F+@ # ",
"  . + > > > > > > V |.0 G+H+I+t+t+J+K+L+M+` N+O+h+N+P+R e.d R d U.R k Q+R+S+T+/ / / y y y F+@ # ",
"  . + > > > > > > U+o V.V+W+X+Y+Z+`+ @.@+@` @@/.O+;+#@x.e.U.j+R e.,+$@%@&@p+V./ / / y y F+F+@ # ",
"  . + > > , , , , *@t  +=@:+-@Y+;@>@>@,@'@)@b.O+z+!@~@,+R ,+d U.T.y.4+%@{@p+o / / y y y F+F+@ # ",
"  . + , , , , , , V ]@^@/@(@s+_@:@<@;@[@}@*.` ;+}.|@1@j+e.e.e.e.U.R k 2@3@4@@./ / y y F+F+F+@ # ",
"  . + , , , , , ' 5@6@s 7@8@t+9@>@t+`+0@a@b@c@N+v.A+^+d T.e.d e.e.R B+d@e@e.E+/ y y y F+F+F+@ # ",
"  . + ' ' ' ' ' ' 3 f@4+B+g@h@t+<@<@i@j@k@l@m@n@o@p@a x.T.T.,+e.d l q@r@s@e.t@y y y F+F+F+u@@ # ",
"  . + ' ' ' ' ' ' 4 P u e v@w@x@J+,@y@[+z@A@B@C@D@3+E@a  +T.e.e.U.C F@G@H@e I@y y y F+F+F+u@@ # ",
"  . + ' ' ) ) ) ) 5 f J@<.K@L@M@N@O@P@Q@R@S@T@U@h+V@W@s a x.,+e.U.X@Y@Z@T.{+`@y y F+F+F+u@u@@ # ",
"  . + ) ) ) ) ) ) )  #;.m+.#+#@###$#%#&#*#=#-#;#>#,#'#P+)# +T.U.!#~#{#=.P ]#y y F+F+F+u@u@u@@ # ",
"  . + ) ) ) ) ) ) ! ! ^#-./#.#(#_#:#<#[#7.}#}#|#1#2#Q.3#O  +U.e z.4#5#4@6#y y y F+F+F+u@u@u@@ # ",
"  . + ! ! ! ! ! ! ! ! x y..#7#8#9#0#a#b#c#d#e#f#g#h#`  .i+P } i#j#k#l#U.m#y y F+F+F+u@u@u@n#@ # ",
"  . + ! ! ! ! ! ! ! ! ~ 2.o#p#q#8 r#s#t#u#e#v#w#x#y#z#V@3+A#B#x#C#V o#n+y y F+F+F+u@u@u@n#n#@ # ",
"  . + ! ! ~ ~ ~ ~ ~ ~ ~ S T 1.D#E#F#G#H#I#J#K#L#M#N#A.}.O#P#Q#r#R#S#T#U#y F+F+F+u@u@u@u@n#n#@ # ",
"  . + ~ ~ ~ ~ ~ ~ ~ ~ ~ ~ >.2.,+P V#/.3#W#X#Y#Y#Z#`# $.$a.+$@$4+,+n+U#y F+F+F+F+u@u@u@n#n#n#@ # ",
"  . + ~ ~ ~ ~ ~ ~ ~ { { { { { j.#$k f.l#Y $$g+%$&$N+f+*$=$| P #$m#y y F+F+F+F+u@u@u@n#n#n#-$@ # ",
"  . + { { { { { { { { { { { { ] ] ;$>$.#,$'$)$_.!$~$o#j+e {+]#y y y F+F+F+F+u@u@u@n#n#n#-$-$@ # ",
"  . + { { { { { { { { { ] ] ] ] ] ] {$]$I@E+^$s F.V E+n+I@`@y y y F+F+F+F+u@u@u@n#n#n#n#-$-$@ # ",
"  . + { { { ] ] ] ] ] ] ] ] ] ] ] ^ ^ ^ ^ ^ ^ / / / / / y y y y F+F+F+F+u@u@u@n#n#n#n#-$-$-$@ # ",
"  . + ] ] ] ] ] ] ] ] ] ] ] ^ ^ ^ ^ ^ ^ ^ / / / /$($_$y y y y F+F+F+F+u@u@u@n#n#n#n#-$-$:$( @ # ",
"  . + ] ] ] ] ] ] ] ^ ^ ^ ^ ^ ^ ^ ^ ^ / / / / <$[$}$[$|$y F+F+F+F+u@u@u@u@n#n#n#n#-$-$-$1$( @ # ",
"  . + ^ ^ ^ ^ ^ ^ ^ ^ ^ ^ ^ ^ ^ / / / / / / / <$[$}$_$2$F+3$[$4$u@3$5$u@6$6$7$8$+ S 7$1$9$( @ # ",
"  . + ^ ^ ^ ^ ^ ^ ^ ^ ^ ^ / / / / / / / / y y y _$}$#$F+5$9$F+3$5$8$0$n#8$8$6$-$8$7$a$( 9$( @ # ",
"  . + ^ ^ ^ / / / / / / / / / / / / y y y y y 2$b$F+3$[$}$8$u@0$0$8$+ n#8$8$+ -$8$1$c$( 1$@ @ # ",
"  . + / / / / / / / / / / / / y y y y y y y F+4$9$}$9$3$u@d$0$9$n#8$7$9$8$8$+ -$1$c$9$c$d$@ @ # ",
"  . @ @ @ @ @ @ @ @ @ @ @ @ @ @ @ @ @ @ @ @ @ @ e$f$e$@ @ g$f$e$@ g$f$g$e$e$g$@ e$@ e$f$e$@ @ # ",
"  . @ @ @ @ @ @ @ @ @ @ @ @ @ @ @ @ @ @ @ @ @ @ @ @ @ @ @ @ @ @ @ @ @ @ @ @ @ @ @ @ @ @ @ @ @ # ",
"  . # # # # # # # # # # # # # # # # # # # # # # # # # # # # # # # # # # # # # # # # # # # # # # "};
